<?xml version="1.0" encoding="UTF-8" standalone="no"?>
<svg
   id="Layer_1"
   data-name="Layer 1"
   viewBox="0 0 150 150"
   version="1.1"
   sodipodi:docname="donut.svg"
   inkscape:version="1.3.2 (1:1.3.2+202311252150+091e20ef0f)"
   xmlns:inkscape="http://www.inkscape.org/namespaces/inkscape"
   xmlns:sodipodi="http://sodipodi.sourceforge.net/DTD/sodipodi-0.dtd"
   xmlns="http://www.w3.org/2000/svg"
   xmlns:svg="http://www.w3.org/2000/svg">
  <sodipodi:namedview
     id="namedview1"
     pagecolor="#ffffff"
     bordercolor="#000000"
     borderopacity="0.25"
     inkscape:showpageshadow="2"
     inkscape:pageopacity="0.0"
     inkscape:pagecheckerboard="0"
     inkscape:deskcolor="#d1d1d1"
     inkscape:zoom="5.3533333"
     inkscape:cx="75"
     inkscape:cy="74.9066"
     inkscape:window-width="1850"
     inkscape:window-height="1016"
     inkscape:window-x="70"
     inkscape:window-y="27"
     inkscape:window-maximized="1"
     inkscape:current-layer="Layer_1" />
  <defs
     id="defs1">
    <style
       id="style1">.cls-1{fill:#b70f7f;}</style>
  </defs>
  <title
     id="title1">Viz Themes</title>
  <path
     class="cls-1"
     d="M75,11.42A63.6,63.6,0,0,0,32.64,27.54a2.48,2.48,0,0,0-.26.19,2.39,2.39,0,0,0-.22.23A63.84,63.84,0,1,0,75,11.42Zm58.94,61.44H112.57A37.7,37.7,0,0,0,77.43,37.72V16.35A59,59,0,0,1,133.94,72.86ZM72.57,37.72a37.49,37.49,0,0,0-21.13,8.22l-14-16.11A58.74,58.74,0,0,1,72.57,16.35ZM75,42.5A32.8,32.8,0,1,1,42.2,75.29,32.84,32.84,0,0,1,75,42.5Zm0,91.8A59,59,0,0,1,33.81,33.09l14,16.14a37.65,37.65,0,1,0,64.72,28.49h21.37A59.07,59.07,0,0,1,75,134.3Z"
     id="path1"
     style="fill:#000000" />
</svg>
