<svg id="Layer_1" data-name="Layer 1" xmlns="http://www.w3.org/2000/svg" viewBox="0 0 150 150"><defs><style>.cls-1{fill:#b70f7f;}</style></defs><title>Viz Themes</title><path class="cls-1" d="M138.91,134.3H13.52V13.85a2.43,2.43,0,1,0-4.86,0V136.73a2.43,2.43,0,0,0,2.43,2.43H138.91a2.43,2.43,0,1,0,0-4.86Z"/><path class="cls-1" d="M27.67,119.19a2.49,2.49,0,0,0,1.11.27,2.42,2.42,0,0,0,2.16-1.32l17-33.09,18,15.87a2.46,2.46,0,0,0,2.18.54A2.41,2.41,0,0,0,69.74,100L83.57,65.33l20.74,25.19a2.43,2.43,0,0,0,4.16-.72l15-41.33a2.43,2.43,0,1,0-4.57-1.66L105.35,84.13,84.72,59.06a2.44,2.44,0,0,0-4.14.65L66.5,95,48.78,79.34a2.44,2.44,0,0,0-3.78.71L26.62,115.92A2.43,2.43,0,0,0,27.67,119.19Z"/><path class="cls-1" d="M124.84,40.31a2.93,2.93,0,1,0-2.92-2.93A2.93,2.93,0,0,0,124.84,40.31Z"/></svg>