<svg xmlns="http://www.w3.org/2000/svg" width="27.21" height="37.494" viewBox="0 0 27.21 37.494">
  <path id="Trazado_862" data-name="Trazado 862" d="M544.168,14.3a1.394,1.394,0,0,0,.34.149.745.745,0,0,1,.566.4,1.277,1.277,0,0,1,.2.718.776.776,0,0,1-.118.361,4.95,4.95,0,0,1-.466.587.681.681,0,0,1-.287.164c-.245.08-.5.133-.746.217a.426.426,0,0,0-.216.175c-.148.255-.28.518-.414.781a.52.52,0,0,1-.466.3.283.283,0,0,0-.176.1.749.749,0,0,0-.126.231,4.462,4.462,0,0,1-.676,1.191.575.575,0,0,0-.063.206c-.007.028,0,.061-.008.085a.959.959,0,0,0-.049.612.3.3,0,0,1-.038.185c-.076.17-.17.334-.242.5a.165.165,0,0,0,.02.147c.142.134.309.245.441.388a2.214,2.214,0,0,1,.238.377.23.23,0,0,1,.02.085,1.789,1.789,0,0,0,.586,1.132.5.5,0,0,1,.158.432c-.012.206-.009.413-.005.62a.921.921,0,0,1-.108.471,1.791,1.791,0,0,0-.11.506,3.214,3.214,0,0,1,.377.1.465.465,0,0,1,.308.453c.011.243.043.255.273.237a3.749,3.749,0,0,1,.443,0c.348.007.7,0,1.046.031a1.432,1.432,0,0,0,.529-.085,1.343,1.343,0,0,1,1.033.143.979.979,0,0,0,.474.1.677.677,0,0,1,.6.3c.362.489.74.964,1.106,1.447.125.164.151.153.328.044a.7.7,0,0,1,.36-.1c.552.014,1.1.064,1.653.069a1.759,1.759,0,0,0,.936-.187.076.076,0,0,1,.033-.015c.425.012.865-.073,1.211.275l.012.013a1.041,1.041,0,0,1,.027,1.183.639.639,0,0,0-.189.6.592.592,0,0,1-.31.611.3.3,0,0,0-.143.369.8.8,0,0,1,.008.244c-.035.219-.093.435-.12.656a.936.936,0,0,0,.05.3c.034.154.072.305.11.458.017.067.036.133.058.2.052.148.1.3.165.443a.381.381,0,0,0,.143.17.58.58,0,0,1,.287.34,2.091,2.091,0,0,0,.238.483.828.828,0,0,1-.241,1.145l-.057.034a.262.262,0,0,0-.06.037c-.064.06-.127.122-.194.185a2.98,2.98,0,0,0,.663.772.765.765,0,0,1,.274.553c0,.028-.01.07.006.085a1.023,1.023,0,0,1,.192.626,1.724,1.724,0,0,1,.053.34,2.96,2.96,0,0,0,.231.987,3.523,3.523,0,0,1,.092.622.4.4,0,0,1-.331.385,4.975,4.975,0,0,1-.538.1.46.46,0,0,1-.518-.392.589.589,0,0,1,0-.062,2.382,2.382,0,0,0-.2-1.015c-.039-.089.012-.22.025-.364-.059.057-.107.1-.149.147a.9.9,0,0,1-.9.368.094.094,0,0,0-.069,0c-.28.214-.6.113-.908.109-.774-.01-1.546-.039-2.318-.06h-.218v.44c.143,0,.281.008.421,0a.945.945,0,0,1,.687.231,1.152,1.152,0,0,1,.315.766.744.744,0,0,0,.013.155.612.612,0,0,1-.606.823c-.2.013-.394-.049-.591-.051a6.091,6.091,0,0,0-.646.044c-.019,0-.044.067-.045.1,0,.265-.005.53,0,.8,0,.176.145.233.276.284a1.072,1.072,0,0,1,.763,1.084.565.565,0,0,0,.113.285,1.349,1.349,0,0,1,.242.893,29.116,29.116,0,0,1-.493,3.063c-.189,1.157-.425,2.307-.623,3.462-.056.322-.3.4-.542.484a.419.419,0,0,1-.458-.2c-.152-.185-.3-.377-.457-.559a.228.228,0,0,0-.17-.036.982.982,0,0,1-.851-.247.49.49,0,0,1-.085-.657c.328-.553.659-1.106.984-1.658.045-.075.1-.223.085-.239a.509.509,0,0,0-.321-.142.6.6,0,0,1-.654-.34.285.285,0,0,0-.393-.089l-.008,0a1.607,1.607,0,0,1-.971.068c-.183-.027-.345-.207-.529-.324a.586.586,0,0,1-.489.275.045.045,0,0,0-.032.012c-.225.3-.567.163-.851.224a.262.262,0,0,1-.17-.029,1.688,1.688,0,0,0-1.013-.08.52.52,0,0,1-.47-.18.386.386,0,0,0-.142-.12.716.716,0,0,1-.416-.925.2.2,0,0,1,.013-.033c.018-.041.036-.085.051-.123-.216-.095-.425-.184-.627-.279a.444.444,0,0,1-.279-.5.555.555,0,0,0-.085-.505.854.854,0,0,1-.563-.255.566.566,0,0,0-.3-.1c-.47-.085-.612-.277-.745-.711a2.613,2.613,0,0,0-.147-.515.486.486,0,0,0-.321-.184.568.568,0,0,1-.406-.179.181.181,0,0,0-.073-.046c-.08-.035-.185-.047-.239-.106-.238-.255-.57-.116-.842-.211a1.163,1.163,0,0,1-.219-.06,1.668,1.668,0,0,0-.64-.233.524.524,0,0,1-.255-.141c-.181-.17-.351-.348-.521-.527-.078-.085-.131-.08-.218,0a1.253,1.253,0,0,1-.825.283c-.1,0-.208-.022-.313-.025a1.371,1.371,0,0,1-.624-.165,2.458,2.458,0,0,0-.851-.154.416.416,0,0,1-.34-.219c-.07-.122-.121-.255-.2-.373a.47.47,0,0,0-.385-.255.873.873,0,0,1-.567-.211c-.217-.177-.453-.332-.681-.5a.631.631,0,0,1-.094-.085.652.652,0,0,0-.328-.205,1.185,1.185,0,0,1-.395-.284c-.248-.224-.48-.466-.728-.689a.528.528,0,0,1-.1-.739l.015-.017c.17-.213.3-.472.6-.565a.091.091,0,0,0,.051-.061c.035-.194.051-.394.1-.585a1.218,1.218,0,0,1,.41-.737,1.232,1.232,0,0,1,.605-.285c.158-.021.32-.17.5-.151a.4.4,0,0,0,.368-.115.737.737,0,0,0,.125-.245,1.255,1.255,0,0,1,.1-.323c.17-.221.372-.417.55-.631.124-.147.229-.309.324-.44-.145-.255-.272-.487-.414-.711a.809.809,0,0,1,.18-1.045.461.461,0,0,0,.128-.273.807.807,0,0,0-.01-.382,3.017,3.017,0,0,1-.071-.963.342.342,0,0,0-.1-.279.683.683,0,0,1-.151-.289,1.158,1.158,0,0,1-.058-.34.339.339,0,0,1,.249-.31c.182-.085.2-.135.1-.313a1.092,1.092,0,0,1-.217-.658c.02-.152.067-.3.1-.452-.063-.11-.133-.242-.215-.368a.506.506,0,0,0-.14-.129.548.548,0,0,1-.245-.43.258.258,0,0,0-.07-.166c-.6-.477-.411-.968-.1-1.471a.368.368,0,0,0,.069-.135.517.517,0,0,1,.545-.484.51.51,0,0,1,.107.017.165.165,0,0,0,.2-.075c.069-.1.209-.178.224-.278.01-.079-.146-.17-.191-.269-.1-.233-.187-.477-.273-.718a.152.152,0,0,1,0-.12,3.566,3.566,0,0,1,.41-.623.42.42,0,0,1,.565.053c.075.067.146.135.189.175.352-.2.7-.36,1.013-.573a1.124,1.124,0,0,0,.587-.676.832.832,0,0,1,.619-.573c.157-.053.315-.1.466-.154a4.407,4.407,0,0,0,.144-.469.319.319,0,0,0-.057-.223.547.547,0,0,1-.014-.673,1.4,1.4,0,0,0,.112-.286c.085-.226.153-.455.25-.674a.857.857,0,0,1,.206-.215c.13-.125.262-.249.394-.37a.276.276,0,0,1,.115-.085,1.567,1.567,0,0,0,.712-.5.6.6,0,0,1,.632-.157l.589.2c.071-.17.129-.347.214-.511a.5.5,0,0,1,.216-.221,1.052,1.052,0,0,1,.872-.026,2.514,2.514,0,0,0,.959.069c.038,0,.085-.043.119-.07a4.909,4.909,0,0,1,.681-.529,3.144,3.144,0,0,1,1.256-.5.2.2,0,0,0,.171-.231l-.006-.024a.547.547,0,0,1,.421-.649.5.5,0,0,1,.091-.012,1.613,1.613,0,0,0,.517-.277c.153-.1.295-.214.441-.321ZM538.69,17.74a1.217,1.217,0,0,1-.017.124.716.716,0,0,1-.551.533,1.845,1.845,0,0,1-1-.124.17.17,0,0,0-.157,0c-.255.2-.506.4-.75.612a1.021,1.021,0,0,0-.311.725c-.015.182.015.369-.01.547a2.646,2.646,0,0,1-.142.4.37.37,0,0,0-.033.211.905.905,0,0,1-.129.871.733.733,0,0,1-.776.367c-.231-.032-.406.02-.452.285-.005.038-.042.07-.062.106a2.625,2.625,0,0,1-.936.907c-.14.085-.267.182-.183.38a.294.294,0,0,1,0,.106c-.01.265-.027.529-.029.793a.465.465,0,0,1-.327.506,3.359,3.359,0,0,1-.653.045.305.305,0,0,0-.126.013,1.176,1.176,0,0,0-.511.494.62.62,0,0,1-.579.425c.1.181.185.363.288.539a.7.7,0,0,0,.179.219,1,1,0,0,1,.489.9,4.61,4.61,0,0,1-.085.466.7.7,0,0,0,0,.262,3.932,3.932,0,0,1,.2,1.112.541.541,0,0,1-.154.392.412.412,0,0,0-.106.24c-.013.271,0,.542-.009.813a.991.991,0,0,0,.117.485,1.076,1.076,0,0,1,.034.425c0,.057-.026.113-.03.17-.016.184-.028.37-.042.572a.831.831,0,0,1,.153.131.991.991,0,0,0,.359.288.4.4,0,0,1,.23.473,3.456,3.456,0,0,1-.348.8c-.125.205-.38.319-.442.587-.02.085-.113.155-.179.228a1.987,1.987,0,0,1-.3.307.22.22,0,0,0-.116.191.663.663,0,0,1-.077.3,4.272,4.272,0,0,1-.394.519.666.666,0,0,1-.239.135,2.138,2.138,0,0,0-.36.128.729.729,0,0,1-.532.187.135.135,0,0,0-.061.026c-.118.073-.236.147-.377.238a1.972,1.972,0,0,0-.01.278c.017.221.06.441.069.66a.522.522,0,0,1-.444.536c-.076.014-.154.026-.231.039l-.023.059c.207.121.425.232.62.367a8.978,8.978,0,0,1,.748.555.568.568,0,0,0,.589.143.5.5,0,0,1,.66.242.526.526,0,0,1,.039.127.141.141,0,0,0,.053.085.8.8,0,0,1,.348.517,1.716,1.716,0,0,1,.753.14.686.686,0,0,0,.83-.085.553.553,0,0,1,.158-.074.951.951,0,0,1,.837.016c.243.112.52.193.65.479a.293.293,0,0,0,.356.191.252.252,0,0,1,.2.038.643.643,0,0,0,.681.179c.176-.031.386.137.579.218.064.027.128.094.184.085.281-.036.433.136.586.325a.907.907,0,0,0,.152.122,3.4,3.4,0,0,1,.538.447,2.863,2.863,0,0,1,.211.516,1.293,1.293,0,0,0,.255.34,1.992,1.992,0,0,0,.292.179c.139.094.266.2.408.293.161.1.383.154.488.3a3.848,3.848,0,0,1,.333.716c.023.051.05.125.093.14a1.012,1.012,0,0,1,.723.9,1.747,1.747,0,0,0,.069.395c.013.044.1.085.163.085a3.991,3.991,0,0,0,.511.01c.288-.013.6.079.836-.18.013-.015.045-.014.064-.027a.866.866,0,0,0,.2-.142.8.8,0,0,1,.708-.271c.246.093.483.208.731.3.063.023.181.026.215-.012a.632.632,0,0,1,.709-.187,3.678,3.678,0,0,1,.844.408,1.317,1.317,0,0,0,.439.159.635.635,0,0,1,.425.212,3.9,3.9,0,0,0,.5.443,2.85,2.85,0,0,0,.425.219c0-.007.017-.057.026-.109.081-.441.17-.879.24-1.321a6.983,6.983,0,0,0,.189-1.592.433.433,0,0,0-.026-.17c-.091-.17-.2-.34-.287-.511a.379.379,0,0,1-.043-.237c.037-.166-.043-.239-.17-.3a1.054,1.054,0,0,1-.17-.091,1.163,1.163,0,0,1-.579-.92c-.015-.36.018-.722-.009-1.08a.706.706,0,0,1,.4-.8,2.416,2.416,0,0,1,.311-.1,1.9,1.9,0,0,1,.191-.036.623.623,0,0,1-.461-.566c-.012-.478-.007-.958,0-1.436a.429.429,0,0,1,.286-.425,1.653,1.653,0,0,1,.5-.1c.369-.012.741,0,1.112,0h1.523a.531.531,0,0,1,.511-.5.889.889,0,0,1,.7.389,1.716,1.716,0,0,1,.835-.766c-.1-.06-.161-.1-.22-.134a.846.846,0,0,1-.229-.157.283.283,0,0,0-.276-.151.367.367,0,0,1-.354-.275.544.544,0,0,1,.156-.6c.232-.235.474-.459.72-.681a.22.22,0,0,0,.07-.255.489.489,0,0,0-.214-.3.741.741,0,0,1-.263-.358,2.634,2.634,0,0,0-.273-.936c-.04-.058-.011-.161-.026-.242a.838.838,0,0,0-.067-.228.919.919,0,0,1-.112-.607,6.718,6.718,0,0,0,.124-1.164.9.9,0,0,1,.384-.8.3.3,0,0,0,.134-.245c.034-.327,0-.681.29-.936.017-.015.015-.052.031-.11a.514.514,0,0,0-.158.028.785.785,0,0,1-.653.108.412.412,0,0,0-.171-.008,5.415,5.415,0,0,1-.736.128,6.81,6.81,0,0,1-.788-.08c-.139-.013-.31-.06-.41,0a1.091,1.091,0,0,1-.511.155.838.838,0,0,1-.727-.216c-.472-.472-.956-.932-1.43-1.4a.383.383,0,0,0-.315-.151.964.964,0,0,1-.309-.065,1.52,1.52,0,0,0-.948-.076,3.816,3.816,0,0,1-1.06.109c-.434.013-.871,0-1.307-.012a1.031,1.031,0,0,1-.347-.095c-.3-.123-.4-.411-.543-.669-.03-.053-.085-.12-.142-.127a.76.76,0,0,1-.61-.791c-.013-.247.008-.5-.017-.741a.6.6,0,0,1,.109-.431.544.544,0,0,0,.085-.217c.048-.292-.2-.41-.35-.591a1.391,1.391,0,0,1-.213-.334,2.3,2.3,0,0,1-.106-.392c-.029-.118-.032-.24-.2-.268-.12-.021-.23-.109-.351-.129a2.453,2.453,0,0,0-.42,0,.42.42,0,0,1-.4-.242.453.453,0,0,1,.034-.485c.038-.06.085-.115.118-.175.17-.289.34-.576.494-.869a1.214,1.214,0,0,0,.116-.363c.048-.3.078-.612.123-.919a.331.331,0,0,1,.067-.143,5.468,5.468,0,0,0,.725-1.343,1.787,1.787,0,0,1,.227-.457c.154-.193.312-.41.611-.393a.144.144,0,0,0,.11-.036c.125-.207.244-.417.385-.663a4.475,4.475,0,0,1-.454.191c-.233.068-.488.074-.652.3-.042.056-.131.076-.2.115-.2.117-.4.228-.6.353a1.089,1.089,0,0,1-.7.283c-.311-.023-.624-.005-.937-.005Zm8.068,32.189L547.3,50l.249-1.361-.04-.016Zm-2.475-34.411c-.107-.036-.2-.06-.28-.094-.123-.052-.2-.044-.217.116a.282.282,0,0,1-.116.187,4.785,4.785,0,0,1-.457.208c-.056.026-.108.061-.161.093l.035.068c.395-.173.9-.085,1.2-.578Z" transform="translate(-527.221 -14.293)" fill="#c8c8c8"/>
</svg>
