<?xml version="1.0" encoding="UTF-8" standalone="no"?>
<svg
   id="Layer_1"
   data-name="Layer 1"
   viewBox="0 0 150 150"
   version="1.1"
   sodipodi:docname="pie.svg"
   inkscape:version="1.3.2 (1:1.3.2+202311252150+091e20ef0f)"
   xmlns:inkscape="http://www.inkscape.org/namespaces/inkscape"
   xmlns:sodipodi="http://sodipodi.sourceforge.net/DTD/sodipodi-0.dtd"
   xmlns="http://www.w3.org/2000/svg"
   xmlns:svg="http://www.w3.org/2000/svg">
  <sodipodi:namedview
     id="namedview1"
     pagecolor="#ffffff"
     bordercolor="#000000"
     borderopacity="0.25"
     inkscape:showpageshadow="2"
     inkscape:pageopacity="0.0"
     inkscape:pagecheckerboard="0"
     inkscape:deskcolor="#d1d1d1"
     inkscape:zoom="5.3533333"
     inkscape:cx="75"
     inkscape:cy="74.9066"
     inkscape:window-width="1850"
     inkscape:window-height="1016"
     inkscape:window-x="70"
     inkscape:window-y="27"
     inkscape:window-maximized="1"
     inkscape:current-layer="Layer_1" />
  <defs
     id="defs1">
    <style
       id="style1">.cls-1{fill:#b70f7f;}</style>
  </defs>
  <title
     id="title1">Viz Themes</title>
  <path
     class="cls-1"
     d="M94.82,14.58a.43.43,0,0,1-.12-.05l-.1,0a63.71,63.71,0,0,0-59.81,11.2,2.61,2.61,0,0,0-.3.2l-.21.21a63.85,63.85,0,1,0,99.07,75.1s.07-.09.09-.14,0-.14.07-.21A63.83,63.83,0,0,0,94.82,14.58ZM134,75.29a58.82,58.82,0,0,1-4.1,21.57L78,74l17.5-54A59.11,59.11,0,0,1,134,75.29ZM90.87,18.47,74.06,70.31,39.51,28.19a58.76,58.76,0,0,1,51.36-9.72ZM75,134.3a59,59,0,0,1-39.25-103L73.12,76.83l0,0a1.81,1.81,0,0,0,.24.24l.14.12a2.4,2.4,0,0,0,.27.16l.17.1,0,0,53.92,23.79A59.07,59.07,0,0,1,75,134.3Z"
     id="path1"
     style="fill:#000000" />
</svg>
