<svg xmlns="http://www.w3.org/2000/svg" viewBox="0 0 128.59 127.88"><defs><style>.cls-1{fill:#b70f7f;}</style></defs><title>Asset 1</title><g id="Layer_2" data-name="Layer 2"><g id="Layer_1-2" data-name="Layer 1"><path class="cls-1" d="M56.69,127.88H2.5a2.5,2.5,0,0,1-2.5-2.5V2.5A2.5,2.5,0,0,1,2.5,0H56.69a2.5,2.5,0,0,1,2.5,2.5V125.38A2.5,2.5,0,0,1,56.69,127.88ZM5,122.88H54.19V5H5Z"/><path class="cls-1" d="M126.09,80.19h-58a2.49,2.49,0,0,1-2.5-2.5V2.5A2.49,2.49,0,0,1,68.07,0h58a2.5,2.5,0,0,1,2.5,2.5V77.69A2.5,2.5,0,0,1,126.09,80.19Zm-55.52-5h53V5h-53Z"/><path class="cls-1" d="M126.09,127.88h-58a2.49,2.49,0,0,1-2.5-2.5v-36a2.49,2.49,0,0,1,2.5-2.5h58a2.5,2.5,0,0,1,2.5,2.5v36A2.5,2.5,0,0,1,126.09,127.88Zm-55.52-5h53v-31h-53Z"/></g></g></svg>