<svg xmlns="http://www.w3.org/2000/svg" width="30.019" height="30.019" viewBox="0 0 30.019 30.019"><defs><style>.cls-1{fill:#8097a4;}</style></defs><g id="Layer_2" data-name="Layer 2"><g id="Layer_1-2" data-name="Layer 1"><path class="cls-1" d="M15.009,30.019a15.01,15.01,0,1,1,15.01-15.01A15.027,15.027,0,0,1,15.009,30.019ZM15.009,1a14.01,14.01,0,1,0,14.01,14.009A14.024,14.024,0,0,0,15.009,1Zm0,20.72a.547.547,0,0,0,.546-.546V12.533a.546.546,0,0,0-1.092,0v8.641A.547.547,0,0,0,15.009,21.72Zm1.86,0,.039,0a.547.547,0,0,0,.545-.515l.506-8.64a.547.547,0,0,0-.511-.577.564.564,0,0,0-.39.13.553.553,0,0,0-.189.384l-.506,8.639A.546.546,0,0,0,16.869,21.718Zm4.288-12.73a.948.948,0,0,0-.92-.738H17.454v-.7a1.1,1.1,0,0,0-1.1-1.1h-2.7a1.1,1.1,0,0,0-1.1,1.1v.7H9.78a.938.938,0,0,0-.92.738l-.269,1.219a.94.94,0,0,0,.919,1.145h.133l.629,10.784a1.516,1.516,0,0,0,1.511,1.425h6.451a1.513,1.513,0,0,0,1.511-1.425l.63-10.784h.133a.943.943,0,0,0,.92-1.146Zm-1.876,2.364-.626,10.721a.421.421,0,0,1-.421.4H11.783a.423.423,0,0,1-.421-.4l-.626-10.721Zm-5.626-3.1v-.7l0,0,2.7,0v.7Zm6.693,2.01H9.712l-.019.005.189-.923H20.12ZM13.109,21.72h.034a.548.548,0,0,0,.512-.577L13.149,12.5a.545.545,0,0,0-.184-.381.51.51,0,0,0-.393-.132.548.548,0,0,0-.376.183.54.54,0,0,0-.136.393l.5,8.641A.546.546,0,0,0,13.109,21.72Z"/></g></g></svg>