<svg id="Layer_1" data-name="Layer 1" xmlns="http://www.w3.org/2000/svg" viewBox="0 0 150 150"><defs><style>.cls-1{fill: currentColor;}</style></defs><title>Viz Themes</title><path class="cls-1" d="M138.91,134.3h-15.3V61a2.43,2.43,0,0,0-2.43-2.43c-14,0-27.32,8.23-40.22,16.19-10.62,6.54-20.65,12.73-29,12.73-15.73,0-33.08-5.12-38.39-6.81V13.85a2.43,2.43,0,1,0-4.86,0V136.73a2.43,2.43,0,0,0,2.43,2.43H138.91a2.43,2.43,0,1,0,0-4.86Zm-125.39,0V85.77c6.79,2.1,23.06,6.57,38.39,6.57,9.78,0,20.38-6.54,31.6-13.45C95.05,71.78,107,64.44,118.75,63.52V134.3Z"/><path class="cls-1" d="M37.31,94.24a2.93,2.93,0,1,0,2.92,2.93A2.93,2.93,0,0,0,37.31,94.24Z"/><path class="cls-1" d="M56,94.24A2.93,2.93,0,1,0,59,97.17,2.93,2.93,0,0,0,56,94.24Z"/><path class="cls-1" d="M74.77,94.24a2.93,2.93,0,1,0,2.93,2.93A2.93,2.93,0,0,0,74.77,94.24Z"/><path class="cls-1" d="M93.51,94.24a2.93,2.93,0,1,0,2.92,2.93A2.93,2.93,0,0,0,93.51,94.24Z"/><path class="cls-1" d="M112.24,94.24a2.93,2.93,0,1,0,2.93,2.93A2.93,2.93,0,0,0,112.24,94.24Z"/><path class="cls-1" d="M112.24,66.18a2.93,2.93,0,1,0,2.93,2.92A2.93,2.93,0,0,0,112.24,66.18Z"/><path class="cls-1" d="M46.5,108.43a2.93,2.93,0,1,0,2.92,2.93A2.93,2.93,0,0,0,46.5,108.43Z"/><path class="cls-1" d="M65.23,108.43a2.93,2.93,0,1,0,2.93,2.93A2.93,2.93,0,0,0,65.23,108.43Z"/><path class="cls-1" d="M84,108.43a2.93,2.93,0,1,0,2.93,2.93A2.93,2.93,0,0,0,84,108.43Z"/><path class="cls-1" d="M102.7,108.43a2.93,2.93,0,1,0,2.92,2.93A2.93,2.93,0,0,0,102.7,108.43Z"/><path class="cls-1" d="M84,79.59a2.93,2.93,0,1,0,2.93,2.93A2.93,2.93,0,0,0,84,79.59Z"/><path class="cls-1" d="M102.7,79.59a2.93,2.93,0,1,0,2.92,2.93A2.93,2.93,0,0,0,102.7,79.59Z"/><path class="cls-1" d="M37.31,123.58a2.93,2.93,0,1,0,2.92,2.93A2.93,2.93,0,0,0,37.31,123.58Z"/><path class="cls-1" d="M56,123.58A2.93,2.93,0,1,0,59,126.51,2.93,2.93,0,0,0,56,123.58Z"/><path class="cls-1" d="M18.58,94.24a2.93,2.93,0,1,0,2.92,2.93A2.93,2.93,0,0,0,18.58,94.24Z"/><path class="cls-1" d="M27.76,108.43a2.93,2.93,0,1,0,2.93,2.93A2.93,2.93,0,0,0,27.76,108.43Z"/><path class="cls-1" d="M18.58,123.58a2.93,2.93,0,1,0,2.92,2.93A2.93,2.93,0,0,0,18.58,123.58Z"/><path class="cls-1" d="M74.77,123.58a2.93,2.93,0,1,0,2.93,2.93A2.93,2.93,0,0,0,74.77,123.58Z"/><path class="cls-1" d="M93.51,123.58a2.93,2.93,0,1,0,2.92,2.93A2.93,2.93,0,0,0,93.51,123.58Z"/><path class="cls-1" d="M112.24,123.58a2.93,2.93,0,1,0,2.93,2.93A2.93,2.93,0,0,0,112.24,123.58Z"/></svg>
