<svg xmlns="http://www.w3.org/2000/svg" viewBox="0 0 44 42.89"><defs><style>.cls-1{fill: currentColor;}</style></defs><title>bubbles_n</title><g id="Layer_2" data-name="Layer 2"><g id="Layer_1-2" data-name="Layer 1"><path class="cls-1" d="M22.13,30A8.86,8.86,0,1,1,31,21.12,8.87,8.87,0,0,1,22.13,30Zm0-16.22a7.36,7.36,0,1,0,7.36,7.36A7.37,7.37,0,0,0,22.13,13.76Z"/><path class="cls-1" d="M33.79,17.35a5,5,0,1,1,5-5A5,5,0,0,1,33.79,17.35Zm0-8.48a3.49,3.49,0,1,0,3.5,3.49A3.49,3.49,0,0,0,33.79,8.87Z"/><path class="cls-1" d="M32.13,6.31a2.44,2.44,0,1,1,2.44-2.43A2.44,2.44,0,0,1,32.13,6.31Zm0-3.67a1.24,1.24,0,1,0,1.24,1.24A1.24,1.24,0,0,0,32.13,2.64Z"/><path class="cls-1" d="M17.21,4.88a2.44,2.44,0,1,1,2.44-2.44A2.45,2.45,0,0,1,17.21,4.88Zm0-3.68a1.24,1.24,0,1,0,1.24,1.24A1.25,1.25,0,0,0,17.21,1.2Z"/><path class="cls-1" d="M5.38,13.57a2.44,2.44,0,1,1,2.44-2.44A2.44,2.44,0,0,1,5.38,13.57Zm0-3.68a1.24,1.24,0,1,0,1.24,1.24A1.25,1.25,0,0,0,5.38,9.89Z"/><path class="cls-1" d="M41.33,18.74a2.44,2.44,0,1,1,2.44-2.44A2.44,2.44,0,0,1,41.33,18.74Zm0-3.68a1.24,1.24,0,1,0,1.24,1.24A1.25,1.25,0,0,0,41.33,15.06Z"/><path class="cls-1" d="M39,33.16a2.44,2.44,0,1,1,2.44-2.44A2.45,2.45,0,0,1,39,33.16Zm0-3.68a1.24,1.24,0,1,0,1.24,1.24A1.25,1.25,0,0,0,39,29.48Z"/><path class="cls-1" d="M27.45,42.35a2.44,2.44,0,1,1,2.43-2.44A2.44,2.44,0,0,1,27.45,42.35Zm0-3.68a1.24,1.24,0,1,0,1.23,1.24A1.24,1.24,0,0,0,27.45,38.67Z"/><path class="cls-1" d="M12.34,40.51a2.44,2.44,0,1,1,2.44-2.44A2.44,2.44,0,0,1,12.34,40.51Zm0-3.68a1.24,1.24,0,1,0,1.24,1.24A1.25,1.25,0,0,0,12.34,36.83Z"/><path class="cls-1" d="M6,39.43A2.44,2.44,0,1,1,8.45,37,2.45,2.45,0,0,1,6,39.43Zm0-3.68A1.24,1.24,0,1,0,7.25,37,1.25,1.25,0,0,0,6,35.75Z"/><path class="cls-1" d="M2.44,34.62a2.44,2.44,0,1,1,2.44-2.44A2.44,2.44,0,0,1,2.44,34.62Zm0-3.67a1.24,1.24,0,1,0,1.24,1.23A1.24,1.24,0,0,0,2.44,31Z"/><path class="cls-1" d="M3.54,28.76A2.44,2.44,0,1,1,6,26.32,2.43,2.43,0,0,1,3.54,28.76Zm0-3.68a1.24,1.24,0,1,0,1.24,1.24A1.24,1.24,0,0,0,3.54,25.08Z"/><path class="cls-1" d="M33.58,42.89A2.44,2.44,0,1,1,36,40.45,2.45,2.45,0,0,1,33.58,42.89Zm0-3.68a1.24,1.24,0,1,0,1.24,1.24A1.25,1.25,0,0,0,33.58,39.21Z"/><path class="cls-1" d="M38.21,39.21a2.44,2.44,0,1,1,2.44-2.44A2.44,2.44,0,0,1,38.21,39.21Zm0-3.68a1.24,1.24,0,1,0,1.24,1.24A1.25,1.25,0,0,0,38.21,35.53Z"/><path class="cls-1" d="M41.57,12.73A2.44,2.44,0,1,1,44,10.29,2.44,2.44,0,0,1,41.57,12.73Zm0-3.68a1.24,1.24,0,1,0,1.23,1.24A1.24,1.24,0,0,0,41.57,9.05Z"/><path class="cls-1" d="M38,7.87a2.44,2.44,0,1,1,2.43-2.44A2.44,2.44,0,0,1,38,7.87Zm0-3.68a1.24,1.24,0,1,0,1.23,1.24A1.24,1.24,0,0,0,38,4.19Z"/><path class="cls-1" d="M24.12,11.88a5,5,0,1,1,5-5A5,5,0,0,1,24.12,11.88Zm0-8.48a3.49,3.49,0,1,0,3.49,3.49A3.5,3.5,0,0,0,24.12,3.4Z"/><path class="cls-1" d="M13.49,14.67a5,5,0,1,1,5-5A5,5,0,0,1,13.49,14.67Zm0-8.49A3.5,3.5,0,1,0,17,9.67,3.49,3.49,0,0,0,13.49,6.18Z"/><path class="cls-1" d="M7.54,24.31a5,5,0,1,1,5-5A5,5,0,0,1,7.54,24.31Zm0-8.49A3.5,3.5,0,1,0,11,19.31,3.49,3.49,0,0,0,7.54,15.82Z"/><path class="cls-1" d="M10.64,35.09a5,5,0,1,1,5-5A5,5,0,0,1,10.64,35.09Zm0-8.49a3.5,3.5,0,1,0,3.49,3.49A3.5,3.5,0,0,0,10.64,26.6Z"/><path class="cls-1" d="M20.5,40.66a5,5,0,1,1,5-5A5,5,0,0,1,20.5,40.66Zm0-8.48A3.49,3.49,0,1,0,24,35.67,3.49,3.49,0,0,0,20.5,32.18Z"/><path class="cls-1" d="M31.18,37.74a5,5,0,1,1,5-5A5,5,0,0,1,31.18,37.74Zm0-8.49a3.5,3.5,0,1,0,3.49,3.5A3.5,3.5,0,0,0,31.18,29.25Z"/><path class="cls-1" d="M36.37,28.08a5,5,0,1,1,5-5A5,5,0,0,1,36.37,28.08Zm0-8.49a3.5,3.5,0,1,0,3.5,3.5A3.5,3.5,0,0,0,36.37,19.59Z"/></g></g></svg>
