<svg xmlns="http://www.w3.org/2000/svg" width="15.236" height="16.603" viewBox="0 0 15.236 16.603"><defs><style>.cls-1{fill:#435b69;}</style></defs><g id="Layer_2" data-name="Layer 2"><g id="Layer_1-2" data-name="Layer 1"><path class="cls-1" d="M14.131,10.463H11.119a.554.554,0,1,0,0,1.107h2.968a.3.3,0,0,1,.042.163v3.6a.48.48,0,0,1-.032.162H1.148a.3.3,0,0,1-.041-.162v-3.6a.455.455,0,0,1,.032-.162H4.25a.554.554,0,0,0,0-1.107H1.1A1.2,1.2,0,0,0,0,11.732v3.6A1.2,1.2,0,0,0,1.1,16.6H14.131a1.183,1.183,0,0,0,1.105-1.269v-3.6A1.182,1.182,0,0,0,14.131,10.463Z"/><path class="cls-1" d="M7.038,12.6a.868.868,0,0,0,.646.289h0A.861.861,0,0,0,8.33,12.6l3.122-3.5a.867.867,0,0,0-.647-1.443H9.632V1.436A1.437,1.437,0,0,0,8.2,0H7.173A1.437,1.437,0,0,0,5.737,1.436V7.654H4.563A.866.866,0,0,0,3.917,9.1ZM6.844,8.761V1.436a.329.329,0,0,1,.329-.329H8.2a.329.329,0,0,1,.329.329V8.761h1.742l-2.583,2.9L5.1,8.761Z"/></g></g></svg>