<svg xmlns="http://www.w3.org/2000/svg" width="18.056" height="6.661" viewBox="0 0 18.056 6.661"><defs><style>.cls-1{fill:#435b69;}</style></defs><g id="Layer_2" data-name="Layer 2"><g id="Layer_1-2" data-name="Layer 1"><path class="cls-1" d="M6.013,5.027a.132.132,0,0,0-.123-.081H3.367A1.65,1.65,0,0,1,1.715,3.393,1.616,1.616,0,0,1,3.329,1.715H7.95A1.613,1.613,0,0,1,9.438,2.7a.859.859,0,0,0,1.5.119.859.859,0,0,0,.068-.815A3.333,3.333,0,0,0,7.95,0H3.382A3.371,3.371,0,0,0,0,3.279,3.333,3.333,0,0,0,3.329,6.661h3.52a.131.131,0,0,0,.123-.081.137.137,0,0,0-.029-.15A4.428,4.428,0,0,1,6.013,5.027Z"/><path class="cls-1" d="M10.106,6.661h4.567a3.373,3.373,0,0,0,3.383-3.279A3.334,3.334,0,0,0,14.726,0H11.207a.132.132,0,0,0-.124.081.138.138,0,0,0,.03.15,4.425,4.425,0,0,1,.929,1.4.136.136,0,0,0,.123.081H14.69a1.648,1.648,0,0,1,1.65,1.553,1.618,1.618,0,0,1-1.614,1.678h-4.62a1.611,1.611,0,0,1-1.488-.987.86.86,0,0,0-1.5-.119.857.857,0,0,0-.069.815A3.334,3.334,0,0,0,10.106,6.661Z"/></g></g></svg>